<mxfile host="app.diagrams.net" agent="Mozilla/5.0 (Windows NT 10.0; Win64; x64) AppleWebKit/537.36 (KHTML, like Gecko) Chrome/127.0.0.0 Safari/537.36" version="24.7.7">
  <diagram name="Page-1" id="OYBKF8mDdiaotXCiKX5Q">
    <mxGraphModel dx="800" dy="425" grid="1" gridSize="10" guides="1" tooltips="1" connect="1" arrows="1" fold="1" page="1" pageScale="1" pageWidth="10000" pageHeight="10000" math="0" shadow="0">
      <root>
        <mxCell id="0" />
        <mxCell id="1" parent="0" />
        <mxCell id="N4-_d5jRV3n-INI8hBD9-41" value="" style="rounded=0;whiteSpace=wrap;html=1;" vertex="1" parent="1">
          <mxGeometry x="207" y="80" width="480" height="320" as="geometry" />
        </mxCell>
        <mxCell id="N4-_d5jRV3n-INI8hBD9-33" style="edgeStyle=orthogonalEdgeStyle;rounded=0;orthogonalLoop=1;jettySize=auto;html=1;exitX=1;exitY=0.75;exitDx=0;exitDy=0;entryX=0.5;entryY=1;entryDx=0;entryDy=0;" edge="1" parent="1" source="N4-_d5jRV3n-INI8hBD9-1" target="N4-_d5jRV3n-INI8hBD9-9">
          <mxGeometry relative="1" as="geometry">
            <Array as="points">
              <mxPoint x="340" y="260" />
              <mxPoint x="340" y="360" />
              <mxPoint x="600" y="360" />
            </Array>
          </mxGeometry>
        </mxCell>
        <mxCell id="N4-_d5jRV3n-INI8hBD9-1" value="" style="rounded=0;whiteSpace=wrap;html=1;" vertex="1" parent="1">
          <mxGeometry x="240" y="200" width="80" height="80" as="geometry" />
        </mxCell>
        <mxCell id="N4-_d5jRV3n-INI8hBD9-2" value="Stripe&lt;div&gt;Connect&lt;/div&gt;" style="text;html=1;align=center;verticalAlign=middle;whiteSpace=wrap;rounded=0;fontStyle=1" vertex="1" parent="1">
          <mxGeometry x="250" y="225" width="60" height="30" as="geometry" />
        </mxCell>
        <mxCell id="N4-_d5jRV3n-INI8hBD9-4" value="" style="rounded=0;whiteSpace=wrap;html=1;" vertex="1" parent="1">
          <mxGeometry x="360" y="140" width="160" height="200" as="geometry" />
        </mxCell>
        <mxCell id="N4-_d5jRV3n-INI8hBD9-5" value="Stablish Servers" style="text;html=1;align=center;verticalAlign=middle;whiteSpace=wrap;rounded=0;fontStyle=1" vertex="1" parent="1">
          <mxGeometry x="350" y="120" width="110" height="30" as="geometry" />
        </mxCell>
        <mxCell id="N4-_d5jRV3n-INI8hBD9-15" style="edgeStyle=orthogonalEdgeStyle;rounded=0;orthogonalLoop=1;jettySize=auto;html=1;exitX=1;exitY=0.5;exitDx=0;exitDy=0;entryX=1;entryY=0.5;entryDx=0;entryDy=0;" edge="1" parent="1" target="N4-_d5jRV3n-INI8hBD9-8">
          <mxGeometry relative="1" as="geometry">
            <mxPoint x="500" y="170.01" as="sourcePoint" />
            <mxPoint x="500" y="290.01" as="targetPoint" />
            <Array as="points">
              <mxPoint x="540" y="170" />
              <mxPoint x="540" y="300" />
            </Array>
          </mxGeometry>
        </mxCell>
        <mxCell id="N4-_d5jRV3n-INI8hBD9-17" style="edgeStyle=orthogonalEdgeStyle;rounded=0;orthogonalLoop=1;jettySize=auto;html=1;exitX=0.5;exitY=1;exitDx=0;exitDy=0;entryX=0.5;entryY=0;entryDx=0;entryDy=0;" edge="1" parent="1" source="N4-_d5jRV3n-INI8hBD9-6" target="N4-_d5jRV3n-INI8hBD9-7">
          <mxGeometry relative="1" as="geometry" />
        </mxCell>
        <mxCell id="N4-_d5jRV3n-INI8hBD9-36" style="edgeStyle=orthogonalEdgeStyle;rounded=0;orthogonalLoop=1;jettySize=auto;html=1;exitX=0.75;exitY=1;exitDx=0;exitDy=0;entryX=0;entryY=0.5;entryDx=0;entryDy=0;" edge="1" parent="1" source="N4-_d5jRV3n-INI8hBD9-6" target="N4-_d5jRV3n-INI8hBD9-10">
          <mxGeometry relative="1" as="geometry">
            <Array as="points">
              <mxPoint x="470" y="210" />
              <mxPoint x="510" y="210" />
              <mxPoint x="510" y="200" />
            </Array>
          </mxGeometry>
        </mxCell>
        <mxCell id="N4-_d5jRV3n-INI8hBD9-6" value="Stripe Server" style="rounded=0;whiteSpace=wrap;html=1;" vertex="1" parent="1">
          <mxGeometry x="380" y="160" width="120" height="40" as="geometry" />
        </mxCell>
        <mxCell id="N4-_d5jRV3n-INI8hBD9-18" style="edgeStyle=orthogonalEdgeStyle;rounded=0;orthogonalLoop=1;jettySize=auto;html=1;exitX=0.25;exitY=0;exitDx=0;exitDy=0;entryX=0.25;entryY=1;entryDx=0;entryDy=0;" edge="1" parent="1" source="N4-_d5jRV3n-INI8hBD9-7" target="N4-_d5jRV3n-INI8hBD9-6">
          <mxGeometry relative="1" as="geometry" />
        </mxCell>
        <mxCell id="N4-_d5jRV3n-INI8hBD9-7" value="Auth Server" style="rounded=0;whiteSpace=wrap;html=1;" vertex="1" parent="1">
          <mxGeometry x="380" y="220" width="120" height="40" as="geometry" />
        </mxCell>
        <mxCell id="N4-_d5jRV3n-INI8hBD9-11" style="edgeStyle=orthogonalEdgeStyle;rounded=0;orthogonalLoop=1;jettySize=auto;html=1;exitX=1;exitY=0.5;exitDx=0;exitDy=0;entryX=0.5;entryY=1;entryDx=0;entryDy=0;" edge="1" parent="1" source="N4-_d5jRV3n-INI8hBD9-8" target="N4-_d5jRV3n-INI8hBD9-10">
          <mxGeometry relative="1" as="geometry">
            <Array as="points">
              <mxPoint x="500" y="310" />
              <mxPoint x="550" y="310" />
              <mxPoint x="550" y="250" />
              <mxPoint x="600" y="250" />
            </Array>
          </mxGeometry>
        </mxCell>
        <mxCell id="N4-_d5jRV3n-INI8hBD9-8" value="Accounts Server" style="rounded=0;whiteSpace=wrap;html=1;" vertex="1" parent="1">
          <mxGeometry x="380" y="280" width="120" height="40" as="geometry" />
        </mxCell>
        <mxCell id="N4-_d5jRV3n-INI8hBD9-9" value="Church" style="rounded=0;whiteSpace=wrap;html=1;" vertex="1" parent="1">
          <mxGeometry x="560" y="260" width="80" height="80" as="geometry" />
        </mxCell>
        <mxCell id="N4-_d5jRV3n-INI8hBD9-13" style="edgeStyle=orthogonalEdgeStyle;rounded=0;orthogonalLoop=1;jettySize=auto;html=1;exitX=0.5;exitY=0;exitDx=0;exitDy=0;entryX=0.75;entryY=0;entryDx=0;entryDy=0;" edge="1" parent="1" source="N4-_d5jRV3n-INI8hBD9-10" target="N4-_d5jRV3n-INI8hBD9-6">
          <mxGeometry relative="1" as="geometry">
            <Array as="points">
              <mxPoint x="600" y="150" />
              <mxPoint x="470" y="150" />
            </Array>
          </mxGeometry>
        </mxCell>
        <mxCell id="N4-_d5jRV3n-INI8hBD9-37" style="edgeStyle=orthogonalEdgeStyle;rounded=0;orthogonalLoop=1;jettySize=auto;html=1;exitX=1;exitY=0.5;exitDx=0;exitDy=0;entryX=0.75;entryY=0;entryDx=0;entryDy=0;" edge="1" parent="1" source="N4-_d5jRV3n-INI8hBD9-10" target="N4-_d5jRV3n-INI8hBD9-1">
          <mxGeometry relative="1" as="geometry">
            <Array as="points">
              <mxPoint x="650" y="200" />
              <mxPoint x="650" y="120" />
              <mxPoint x="300" y="120" />
            </Array>
          </mxGeometry>
        </mxCell>
        <mxCell id="N4-_d5jRV3n-INI8hBD9-10" value="Congregant" style="rounded=0;whiteSpace=wrap;html=1;" vertex="1" parent="1">
          <mxGeometry x="560" y="160" width="80" height="80" as="geometry" />
        </mxCell>
        <mxCell id="N4-_d5jRV3n-INI8hBD9-16" style="edgeStyle=orthogonalEdgeStyle;rounded=0;orthogonalLoop=1;jettySize=auto;html=1;exitX=1;exitY=0.25;exitDx=0;exitDy=0;entryX=0.994;entryY=0.568;entryDx=0;entryDy=0;entryPerimeter=0;" edge="1" parent="1" source="N4-_d5jRV3n-INI8hBD9-8" target="N4-_d5jRV3n-INI8hBD9-6">
          <mxGeometry relative="1" as="geometry">
            <Array as="points">
              <mxPoint x="530" y="290" />
              <mxPoint x="530" y="183" />
            </Array>
          </mxGeometry>
        </mxCell>
        <mxCell id="N4-_d5jRV3n-INI8hBD9-19" style="edgeStyle=orthogonalEdgeStyle;rounded=0;orthogonalLoop=1;jettySize=auto;html=1;exitX=0.5;exitY=0;exitDx=0;exitDy=0;entryX=0.223;entryY=0.051;entryDx=0;entryDy=0;entryPerimeter=0;" edge="1" parent="1" source="N4-_d5jRV3n-INI8hBD9-6" target="N4-_d5jRV3n-INI8hBD9-6">
          <mxGeometry relative="1" as="geometry">
            <Array as="points">
              <mxPoint x="440" y="150" />
              <mxPoint x="407" y="150" />
            </Array>
          </mxGeometry>
        </mxCell>
        <mxCell id="N4-_d5jRV3n-INI8hBD9-20" style="edgeStyle=orthogonalEdgeStyle;rounded=0;orthogonalLoop=1;jettySize=auto;html=1;exitX=0;exitY=0.25;exitDx=0;exitDy=0;entryX=1;entryY=0.25;entryDx=0;entryDy=0;" edge="1" parent="1" source="N4-_d5jRV3n-INI8hBD9-6" target="N4-_d5jRV3n-INI8hBD9-1">
          <mxGeometry relative="1" as="geometry">
            <Array as="points">
              <mxPoint x="340" y="170" />
              <mxPoint x="340" y="220" />
            </Array>
          </mxGeometry>
        </mxCell>
        <mxCell id="N4-_d5jRV3n-INI8hBD9-21" value="3" style="text;html=1;align=center;verticalAlign=middle;whiteSpace=wrap;rounded=1;strokeWidth=0;fillColor=#FFFFFF;fontColor=#000000;strokeColor=none;" vertex="1" parent="1">
          <mxGeometry x="535" y="214" width="10" height="15" as="geometry" />
        </mxCell>
        <mxCell id="N4-_d5jRV3n-INI8hBD9-25" value="4" style="text;html=1;align=center;verticalAlign=middle;whiteSpace=wrap;rounded=1;strokeWidth=0;fillColor=#FFFFFF;fontColor=#000000;strokeColor=none;" vertex="1" parent="1">
          <mxGeometry x="525" y="229" width="10" height="15" as="geometry" />
        </mxCell>
        <mxCell id="N4-_d5jRV3n-INI8hBD9-26" value="5" style="text;html=1;align=center;verticalAlign=middle;whiteSpace=wrap;rounded=0;strokeWidth=0;fillColor=none;" vertex="1" parent="1">
          <mxGeometry x="442" y="199" width="10" height="15" as="geometry" />
        </mxCell>
        <mxCell id="N4-_d5jRV3n-INI8hBD9-27" value="6" style="text;html=1;align=center;verticalAlign=middle;whiteSpace=wrap;rounded=0;strokeWidth=0;fillColor=none;" vertex="1" parent="1">
          <mxGeometry x="412" y="205" width="10" height="15" as="geometry" />
        </mxCell>
        <mxCell id="N4-_d5jRV3n-INI8hBD9-28" value="1" style="text;html=1;align=center;verticalAlign=middle;whiteSpace=wrap;rounded=1;strokeWidth=0;fillColor=#FFFFFF;fontColor=#000000;strokeColor=none;" vertex="1" parent="1">
          <mxGeometry x="555" y="243" width="10" height="15" as="geometry" />
        </mxCell>
        <mxCell id="N4-_d5jRV3n-INI8hBD9-29" value="2" style="text;html=1;align=center;verticalAlign=middle;whiteSpace=wrap;rounded=1;strokeWidth=0;fillColor=#FFFFFF;fontColor=#000000;strokeColor=none;" vertex="1" parent="1">
          <mxGeometry x="535" y="143" width="10" height="15" as="geometry" />
        </mxCell>
        <mxCell id="N4-_d5jRV3n-INI8hBD9-31" value="7" style="text;html=1;align=center;verticalAlign=middle;whiteSpace=wrap;rounded=1;strokeWidth=0;fillColor=none;" vertex="1" parent="1">
          <mxGeometry x="440" y="145" width="10" height="15" as="geometry" />
        </mxCell>
        <mxCell id="N4-_d5jRV3n-INI8hBD9-32" value="8" style="text;html=1;align=center;verticalAlign=middle;whiteSpace=wrap;rounded=1;strokeWidth=0;fillColor=#FFFFFF;fontColor=#000000;strokeColor=none;" vertex="1" parent="1">
          <mxGeometry x="335" y="188" width="10" height="15" as="geometry" />
        </mxCell>
        <mxCell id="N4-_d5jRV3n-INI8hBD9-34" style="edgeStyle=orthogonalEdgeStyle;rounded=0;orthogonalLoop=1;jettySize=auto;html=1;exitX=1;exitY=0.5;exitDx=0;exitDy=0;entryX=0;entryY=0.75;entryDx=0;entryDy=0;" edge="1" parent="1" source="N4-_d5jRV3n-INI8hBD9-1" target="N4-_d5jRV3n-INI8hBD9-6">
          <mxGeometry relative="1" as="geometry" />
        </mxCell>
        <mxCell id="N4-_d5jRV3n-INI8hBD9-35" value="9" style="text;html=1;align=center;verticalAlign=middle;whiteSpace=wrap;rounded=1;strokeWidth=0;fillColor=#FFFFFF;fontColor=#000000;strokeColor=none;" vertex="1" parent="1">
          <mxGeometry x="345" y="207" width="10" height="15" as="geometry" />
        </mxCell>
        <mxCell id="N4-_d5jRV3n-INI8hBD9-38" value="10" style="text;html=1;align=center;verticalAlign=middle;whiteSpace=wrap;rounded=1;strokeWidth=0;fillColor=#FFFFFF;fontColor=#000000;strokeColor=none;glass=0;shadow=0;" vertex="1" parent="1">
          <mxGeometry x="486" y="202" width="14" height="15" as="geometry" />
        </mxCell>
        <mxCell id="N4-_d5jRV3n-INI8hBD9-39" value="11" style="text;html=1;align=center;verticalAlign=middle;whiteSpace=wrap;rounded=1;strokeWidth=0;fillColor=#FFFFFF;fontColor=#000000;strokeColor=none;glass=0;shadow=0;" vertex="1" parent="1">
          <mxGeometry x="487" y="113" width="14" height="15" as="geometry" />
        </mxCell>
        <mxCell id="N4-_d5jRV3n-INI8hBD9-40" value="12" style="text;html=1;align=center;verticalAlign=middle;whiteSpace=wrap;rounded=1;strokeWidth=0;fillColor=#FFFFFF;fontColor=#000000;strokeColor=none;glass=0;shadow=0;" vertex="1" parent="1">
          <mxGeometry x="460" y="353" width="14" height="15" as="geometry" />
        </mxCell>
      </root>
    </mxGraphModel>
  </diagram>
</mxfile>
